<?xml version="1.0" encoding="UTF-8" standalone="no"?><!-- Generator: Gravit.io --><svg xmlns="http://www.w3.org/2000/svg" xmlns:xlink="http://www.w3.org/1999/xlink" style="isolation:isolate" viewBox="0 0 1000 400" width="1000pt" height="400pt"><defs><clipPath id="_clipPath_QJVVdrewPIPVb3S1DnLcDyknHAP44zxp"><rect width="1000" height="400"/></clipPath></defs><g clip-path="url(#_clipPath_QJVVdrewPIPVb3S1DnLcDyknHAP44zxp)"><mask id="_mask_D7X63yzqjXyjihIqJVxpuftHfYP7odNg" x="-200%" y="-200%" width="400%" height="400%"><rect x="-200%" y="-200%" width="400%" height="400%" style="fill:white;"/><path d=" M 125.268 155.725 L 125.268 244.275 L 192.566 244.275 L 192.566 224.415 L 150.315 224.415 L 150.315 155.725 L 125.268 155.725 Z " fill="black" stroke="none"/></mask><path d=" M 125.268 155.725 L 125.268 244.275 L 192.566 244.275 L 192.566 224.415 L 150.315 224.415 L 150.315 155.725 L 125.268 155.725 Z " fill="none" mask="url(#_mask_D7X63yzqjXyjihIqJVxpuftHfYP7odNg)" vector-effect="non-scaling-stroke" stroke-width="6" stroke="rgb(199,104,204)" stroke-linejoin="miter" stroke-linecap="butt" stroke-miterlimit="4"/><path d=" M 125.268 155.725 L 125.268 244.275 L 192.566 244.275 L 192.566 224.415 L 150.315 224.415 L 150.315 155.725 L 125.268 155.725 Z " fill="none"/><path d=" M 220.226 240.1 C 227.69 244.148 236.165 246.046 245.526 246.046 C 254.887 246.046 263.236 244.148 270.7 240.1 C 278.163 236.179 283.982 230.74 288.283 223.656 C 292.584 216.698 294.735 208.855 294.735 200 C 294.735 191.271 292.584 183.428 288.283 176.344 C 283.982 169.387 278.163 163.947 270.7 159.9 C 263.236 155.978 254.887 153.954 245.526 153.954 C 236.165 153.954 227.69 155.978 220.226 159.9 C 212.763 163.947 206.944 169.387 202.643 176.344 C 198.342 183.428 196.318 191.271 196.318 200 C 196.318 208.855 198.342 216.698 202.643 223.656 C 206.944 230.74 212.763 236.179 220.226 240.1 L 220.226 240.1 Z  M 257.67 222.137 C 254.002 224.288 249.954 225.3 245.526 225.3 C 240.972 225.3 236.924 224.288 233.382 222.137 C 229.714 220.113 226.804 217.077 224.78 213.283 C 222.63 209.488 221.618 205.06 221.618 200 C 221.618 195.066 222.63 190.639 224.78 186.844 C 226.804 183.049 229.714 180.013 233.382 177.863 C 236.924 175.839 240.972 174.7 245.526 174.7 C 249.954 174.7 254.002 175.839 257.67 177.863 C 261.212 180.013 264.122 183.049 266.272 186.844 C 268.296 190.639 269.435 195.066 269.435 200 C 269.435 205.06 268.296 209.488 266.272 213.283 C 264.122 217.077 261.212 220.113 257.67 222.137 Z " fill="none" vector-effect="non-scaling-stroke" stroke-width="3" stroke="rgb(199,104,204)" stroke-linejoin="miter" stroke-linecap="butt" stroke-miterlimit="4"/><mask id="_mask_QBIkytdIgl38VOzMIhG4N9gXgqJZJ791" x="-200%" y="-200%" width="400%" height="400%"><rect x="-200%" y="-200%" width="400%" height="400%" style="fill:white;"/><path d=" M 325.467 175.585 L 325.467 244.275 L 350.514 244.275 L 350.514 175.585 L 377.585 175.585 L 377.585 155.725 L 298.269 155.725 L 298.269 175.585 L 325.467 175.585 Z " fill="black" stroke="none"/></mask><path d=" M 325.467 175.585 L 325.467 244.275 L 350.514 244.275 L 350.514 175.585 L 377.585 175.585 L 377.585 155.725 L 298.269 155.725 L 298.269 175.585 L 325.467 175.585 Z " fill="none" mask="url(#_mask_QBIkytdIgl38VOzMIhG4N9gXgqJZJ791)" vector-effect="non-scaling-stroke" stroke-width="6" stroke="rgb(199,104,204)" stroke-linejoin="miter" stroke-linecap="butt" stroke-miterlimit="4"/><path d=" M 325.467 175.585 L 325.467 244.275 L 350.514 244.275 L 350.514 175.585 L 377.585 175.585 L 377.585 155.725 L 298.269 155.725 L 298.269 175.585 L 325.467 175.585 Z " fill="none"/><path d=" M 405.035 240.1 C 412.499 244.148 420.974 246.046 430.335 246.046 C 439.696 246.046 448.045 244.148 455.509 240.1 C 462.972 236.179 468.791 230.74 473.092 223.656 C 477.393 216.698 479.544 208.855 479.544 200 C 479.544 191.271 477.393 183.428 473.092 176.344 C 468.791 169.387 462.972 163.947 455.509 159.9 C 448.045 155.978 439.696 153.954 430.335 153.954 C 420.974 153.954 412.499 155.978 405.035 159.9 C 397.572 163.947 391.753 169.387 387.452 176.344 C 383.151 183.428 381.127 191.271 381.127 200 C 381.127 208.855 383.151 216.698 387.452 223.656 C 391.753 230.74 397.572 236.179 405.035 240.1 Z  M 442.479 222.137 C 438.811 224.288 434.763 225.3 430.335 225.3 C 425.781 225.3 421.733 224.288 418.191 222.137 C 414.523 220.113 411.613 217.077 409.589 213.283 C 407.439 209.488 406.427 205.06 406.427 200 C 406.427 195.066 407.439 190.639 409.589 186.844 C 411.613 183.049 414.523 180.013 418.191 177.863 C 421.733 175.839 425.781 174.7 430.335 174.7 C 434.763 174.7 438.811 175.839 442.479 177.863 C 446.021 180.013 448.931 183.049 451.081 186.844 C 453.105 190.639 454.244 195.066 454.244 200 C 454.244 205.06 453.105 209.488 451.081 213.283 C 448.931 217.077 446.021 220.113 442.479 222.137 Z " fill="none" vector-effect="non-scaling-stroke" stroke-width="3" stroke="rgb(199,104,204)" stroke-linejoin="miter" stroke-linecap="butt" stroke-miterlimit="4"/><mask id="_mask_gJhdKznm7j0CcigQsFWob3rYZePzRBeZ" x="-200%" y="-200%" width="400%" height="400%"><rect x="-200%" y="-200%" width="400%" height="400%" style="fill:white;"/><path d=" M 576.911 155.725 L 551.864 155.725 L 551.864 188.995 L 517.709 188.995 L 517.709 155.725 L 492.662 155.725 L 492.662 244.275 L 517.709 244.275 L 517.709 209.74 L 551.864 209.74 L 551.864 244.275 L 576.911 244.275 L 576.911 155.725 Z " fill="black" stroke="none"/></mask><path d=" M 576.911 155.725 L 551.864 155.725 L 551.864 188.995 L 517.709 188.995 L 517.709 155.725 L 492.662 155.725 L 492.662 244.275 L 517.709 244.275 L 517.709 209.74 L 551.864 209.74 L 551.864 244.275 L 576.911 244.275 L 576.911 155.725 Z " fill="none" mask="url(#_mask_gJhdKznm7j0CcigQsFWob3rYZePzRBeZ)" vector-effect="non-scaling-stroke" stroke-width="6" stroke="rgb(199,104,204)" stroke-linejoin="miter" stroke-linecap="butt" stroke-miterlimit="4"/><path d=" M 576.911 155.725 L 551.864 155.725 L 551.864 188.995 L 517.709 188.995 L 517.709 155.725 L 492.662 155.725 L 492.662 244.275 L 517.709 244.275 L 517.709 209.74 L 551.864 209.74 L 551.864 244.275 L 576.911 244.275 L 576.911 155.725 Z " fill="none"/><mask id="_mask_bxGa6vGlDZTw7qWJ9xu7dxjMaQEkRjTJ" x="-200%" y="-200%" width="400%" height="400%"><rect x="-200%" y="-200%" width="400%" height="400%" style="fill:white;"/><path d=" M 647.706 155.725 L 623.038 155.725 L 583.95 244.275 L 609.503 244.275 L 616.46 227.071 L 623.797 208.602 L 635.182 180.266 L 646.567 208.602 L 653.904 227.071 L 660.862 244.275 L 686.921 244.275 L 647.706 155.725 Z " fill="black" stroke="none"/></mask><path d=" M 647.706 155.725 L 623.038 155.725 L 583.95 244.275 L 609.503 244.275 L 616.46 227.071 L 623.797 208.602 L 635.182 180.266 L 646.567 208.602 L 653.904 227.071 L 660.862 244.275 L 686.921 244.275 L 647.706 155.725 Z " fill="none" mask="url(#_mask_bxGa6vGlDZTw7qWJ9xu7dxjMaQEkRjTJ)" vector-effect="non-scaling-stroke" stroke-width="6" stroke="rgb(199,104,204)" stroke-linejoin="miter" stroke-linecap="butt" stroke-miterlimit="4"/><path d=" M 647.706 155.725 L 623.038 155.725 L 583.95 244.275 L 609.503 244.275 L 616.46 227.071 L 623.797 208.602 L 635.182 180.266 L 646.567 208.602 L 653.904 227.071 L 660.862 244.275 L 686.921 244.275 L 647.706 155.725 Z " fill="none"/><mask id="_mask_GgMHuxLsHHWVxWBq060BNpReAWe1qHRo" x="-200%" y="-200%" width="400%" height="400%"><rect x="-200%" y="-200%" width="400%" height="400%" style="fill:white;"/><path d=" M 711.89 240.227 C 719.227 244.148 727.576 246.046 736.937 246.046 C 745.033 246.046 752.244 244.655 758.822 241.745 C 765.273 238.962 770.713 234.788 775.014 229.348 L 759.075 214.927 C 753.256 221.885 746.298 225.3 738.202 225.3 C 733.395 225.3 729.094 224.288 725.299 222.137 C 721.504 220.113 718.595 217.077 716.571 213.283 C 714.547 209.488 713.535 205.06 713.535 200 C 713.535 195.066 714.547 190.639 716.571 186.844 C 718.595 183.049 721.504 180.013 725.299 177.863 C 729.094 175.839 733.395 174.7 738.202 174.7 C 746.298 174.7 753.256 178.242 759.075 185.073 L 775.014 170.652 C 770.713 165.339 765.273 161.165 758.822 158.255 C 752.244 155.472 745.033 153.954 736.937 153.954 C 727.576 153.954 719.227 155.978 711.89 159.9 C 704.553 163.821 698.734 169.26 694.56 176.218 C 690.259 183.302 688.235 191.145 688.235 200 C 688.235 208.855 690.259 216.824 694.56 223.782 C 698.734 230.866 704.553 236.306 711.89 240.227 L 711.89 240.227 Z " fill="black" stroke="none"/></mask><path d=" M 711.89 240.227 C 719.227 244.148 727.576 246.046 736.937 246.046 C 745.033 246.046 752.244 244.655 758.822 241.745 C 765.273 238.962 770.713 234.788 775.014 229.348 L 759.075 214.927 C 753.256 221.885 746.298 225.3 738.202 225.3 C 733.395 225.3 729.094 224.288 725.299 222.137 C 721.504 220.113 718.595 217.077 716.571 213.283 C 714.547 209.488 713.535 205.06 713.535 200 C 713.535 195.066 714.547 190.639 716.571 186.844 C 718.595 183.049 721.504 180.013 725.299 177.863 C 729.094 175.839 733.395 174.7 738.202 174.7 C 746.298 174.7 753.256 178.242 759.075 185.073 L 775.014 170.652 C 770.713 165.339 765.273 161.165 758.822 158.255 C 752.244 155.472 745.033 153.954 736.937 153.954 C 727.576 153.954 719.227 155.978 711.89 159.9 C 704.553 163.821 698.734 169.26 694.56 176.218 C 690.259 183.302 688.235 191.145 688.235 200 C 688.235 208.855 690.259 216.824 694.56 223.782 C 698.734 230.866 704.553 236.306 711.89 240.227 L 711.89 240.227 Z " fill="none" mask="url(#_mask_GgMHuxLsHHWVxWBq060BNpReAWe1qHRo)" vector-effect="non-scaling-stroke" stroke-width="6" stroke="rgb(199,104,204)" stroke-linejoin="miter" stroke-linecap="butt" stroke-miterlimit="4"/><path d=" M 711.89 240.227 C 719.227 244.148 727.576 246.046 736.937 246.046 C 745.033 246.046 752.244 244.655 758.822 241.745 C 765.273 238.962 770.713 234.788 775.014 229.348 L 759.075 214.927 C 753.256 221.885 746.298 225.3 738.202 225.3 C 733.395 225.3 729.094 224.288 725.299 222.137 C 721.504 220.113 718.595 217.077 716.571 213.283 C 714.547 209.488 713.535 205.06 713.535 200 C 713.535 195.066 714.547 190.639 716.571 186.844 C 718.595 183.049 721.504 180.013 725.299 177.863 C 729.094 175.839 733.395 174.7 738.202 174.7 C 746.298 174.7 753.256 178.242 759.075 185.073 L 775.014 170.652 C 770.713 165.339 765.273 161.165 758.822 158.255 C 752.244 155.472 745.033 153.954 736.937 153.954 C 727.576 153.954 719.227 155.978 711.89 159.9 C 704.553 163.821 698.734 169.26 694.56 176.218 C 690.259 183.302 688.235 191.145 688.235 200 C 688.235 208.855 690.259 216.824 694.56 223.782 C 698.734 230.866 704.553 236.306 711.89 240.227 L 711.89 240.227 Z " fill="none"/><path d=" M 810.976 155.725 L 786.182 155.725 L 786.182 193.422 L 810.976 166.477 L 810.976 155.725 Z  M 836.655 194.94 L 872.834 155.725 L 845.257 155.725 L 810.976 192.536 L 786.182 219.228 L 786.182 244.275 L 810.976 244.275 L 810.976 222.137 L 820.337 212.144 L 845.637 244.275 L 874.732 244.275 L 836.655 194.94 Z " fill="none" vector-effect="non-scaling-stroke" stroke-width="3" stroke="rgb(199,104,204)" stroke-linejoin="miter" stroke-linecap="butt" stroke-miterlimit="4"/></g></svg>